<svg xmlns="http://www.w3.org/2000/svg" xmlns:xlink="http://www.w3.org/1999/xlink"
  viewBox="0 0 1134.22 169.34">
  <defs>
    <clipPath id="clip-path" transform="translate(-34.94 -29.19)">
      <rect x="30.14" y="29.19" width="1139.02" height="169.34" style="fill: none" />
    </clipPath>
  </defs>
  <g id="Layer_1" data-name="Layer 1">
    <polygon points="689.74 85.78 714.38 51.01 694.64 51.01 670.02 85.78 689.74 85.78"
      style="fill: #b80069" />
    <g>
      <polygon points="0 14.65 0 38.13 82.97 23.78 82.97 0.29 0 14.65" style="fill: #0080bd" />
      <polygon points="0 106.48 0 129.97 82.97 115.61 82.97 92.13 0 106.48" style="fill: #0080bd" />
      <polygon points="82.98 23.78 165.7 37.35 165.7 13.87 82.98 0.29 82.98 23.78"
        style="fill: #b90069" />
      <polygon points="82.98 69.18 165.7 82.75 165.7 59.26 82.98 45.7 82.98 69.18"
        style="fill: #b90069" />
      <polygon points="82.98 169.05 165.7 169.05 165.7 150.72 82.98 137.15 82.98 169.05"
        style="fill: #b90069" />
      <polygon points="83 169.05 0.28 169.05 0.28 150.72 83 137.15 83 169.05" style="fill: #0080bd" />
      <polygon points="0 60.05 0 83.53 34.13 77.63 34.13 54.15 0 60.05" style="fill: #0080bd" />
      <polygon points="55.65 50.42 55.65 73.91 82.98 69.18 82.98 45.7 55.65 50.42"
        style="fill: #0080bd" />
      <polygon points="109.75 96.52 82.97 92.13 82.97 115.61 109.75 120.01 109.75 96.52"
        style="fill: #b90069" />
      <polygon points="165.7 37.35 131.52 31.74 131.52 53.66 165.7 37.35" style="fill: #245987" />
      <polygon points="165.7 82.75 131.52 77.14 131.52 99.01 165.7 82.75" style="fill: #245987" />
      <polygon points="165.7 129.09 131.52 123.49 131.52 145.19 165.7 129.09" style="fill: #245987" />
      <polygon points="0 38.13 34.13 54.15 34.09 32.23 0 38.13" style="fill: #245987" />
      <polygon points="0 83.53 34.13 100.6 34.13 77.44 0 83.53" style="fill: #245987" />
      <polygon points="0 129.97 34.13 145.16 34.09 124.09 0 129.97" style="fill: #245987" />
      <polygon points="165.7 129.09 165.7 104.61 131.52 99.01 131.52 123.49 165.7 129.09"
        style="fill: #b90069" />
    </g>
  </g>
  <g id="Layer_2" data-name="Layer 2">
    <g style="clip-path: url(#clip-path)">
      <path
        d="M1075,155.92c1.49,11.84,4.6,21.17,9.42,27.86q10.45,14.52,35.54,14.52,18.81,0,45.3-3.72l-.47-13.71-6.74.7q-17.88,1.4-35.19,1.39t-24.27-9.29c-3.22-4.28-5.24-10.28-6.23-17.75ZM265.8,74.72q0-26.25,34.84-26.25,13.47,0,45.76,4L348,37.32l-7.9-1.16a284.66,284.66,0,0,0-40.65-3.49q-51.81,0-51.8,43.21,0,21.6,11.38,30.78t38.56,15q20.67,3.94,28.22,9.64t7.55,18.7q0,32.28-34.38,32.29-16.49,0-48.08-4.18L249.07,193l8.36,1.16q25.56,4,42.51,3.95,51.35,0,51.34-49.48,0-20-10.22-28.68t-34.73-14.17q-24.51-5.46-32.52-10.92t-8-20.09m117.31-9.19H400.3V44.28H383.11Zm32.05,133q8.13,0,23.7-2.56l-1.17-14.4L417,183q-10.92,0-13.82-6.27t-2.9-26.25V94.93h36.93V79.83h-3V80H366.61V94.93h16.5V156q0,24.85,7,33.68t25.09,8.83m108-22.07-5.35,1.86a94,94,0,0,1-31.12,5.34q-17.65,0-17.66-21.37,0-9.75,4.65-14.87t15.1-6l34.38-3.25Zm30.19,21.84.7-13.71Q541.29,183,540.6,174.37V114.9q0-19.28-9-28.34t-28.68-9q-19.75,0-45.3,5.1l.7,13.25,7.2-.7a333.68,333.68,0,0,1,38.56-2.32q8.82,0,13.93,5.11t5.12,17v10l-36.47,3.48q-18.36,1.88-26.95,9.88t-8.6,25q0,17,8.37,26t24.39,9.07a102.12,102.12,0,0,0,41.81-9.3q9.28,9.3,27.64,9.3m41.23-25.56q-6.61-10-6.62-35.42t7.09-34.84q7.08-9.42,26.83-9.41a270.69,270.69,0,0,1,27.41,2.09L650,81l-5.58-.7q-18.36-2.79-26-2.78-26,0-37.16,13.35T570.1,137.32q0,33.1,10.33,47T618,198.3q10.68,0,32.29-3.26l-.7-14.4-27.41,2.09q-20.91,0-27.53-10m81.65-58.14h17.42V29.19H676.25ZM746.64,196h19.74l-39.49-62.72-2.51-4.19H676.25V196h17.42V142.78l18.36-.7ZM851.4,176.46l-5.34,1.86a94.08,94.08,0,0,1-31.13,5.34q-17.65,0-17.66-21.37,0-9.75,4.65-14.87t15.1-6l34.38-3.25Zm30.19,21.84.7-13.71q-12.78-1.62-13.47-10.22V114.9q0-19.28-8.94-28.34t-28.69-9q-19.76,0-45.3,5.1l.7,13.25,7.2-.7a333.68,333.68,0,0,1,38.56-2.32q8.82,0,13.94,5.11t5.11,17v10l-36.47,3.48q-18.36,1.88-26.95,9.88t-8.59,25q0,17,8.36,26t24.39,9.07A102.12,102.12,0,0,0,854,189q9.3,9.3,27.64,9.3m97.57-60.86q0,24.62-7.32,34.95t-30.08,10.34q-6.27,0-21.37-1.16V99.81L925,98.18a81.11,81.11,0,0,1,27.65-5.11q14.85,0,20.67,9.87t5.81,34.5m5.92,47.27q11.73-13.61,11.73-47T987.4,90.86Q978,77.51,954.53,77.51q-16.49,0-34.14,8.12V29.19H903.2V195.74l6.5.7q22.53,1.84,32.29,1.86,31.35,0,43.09-13.59m59.11-43.25V29.19h-17.42V196h17.42V155.92h-.14V141.46Zm107.55-10.3h-60.39q.23-20.43,8-29.73t23.23-9.29q15.45,0,22.3,8.83t6.85,30.19m16.75,10.3.67-9.6q0-28.11-11.61-41.23t-35.08-13.12q-48.54,0-48.55,61.09c0,1,0,1.9.07,2.86Z"
        transform="translate(-34.94 -29.19)" style="fill: #0080bd" />
    </g>
  </g>
</svg>
